<svg width="256" height="256" viewBox="0 0 256 256" fill="none" xmlns="http://www.w3.org/2000/svg">
  <!-- 디스켓 배경 (파란색 바디) -->
  <rect x="20" y="20" width="216" height="216" rx="12" fill="#3B82F6"/>
  
  <!-- 디스켓 셔터 (상단 금속 부분) -->
  <rect x="50" y="20" width="120" height="80" rx="4" fill="#E5E7EB"/>
  <rect x="70" y="35" width="10" height="50" fill="#9CA3AF"/>
  
  <!-- 디스켓 라벨 (하단 흰색 영역) -->
  <rect x="50" y="130" width="156" height="106" rx="4" fill="white"/>
  
  <!-- 라벨 안의 가로선들 (텍스트 영역 느낌) -->
  <rect x="65" y="145" width="126" height="6" rx="2" fill="#DBEAFE"/>
  <rect x="65" y="210" width="126" height="6" rx="2" fill="#DBEAFE"/>

  <!-- 구름 아이콘 (라벨 정중앙에 배치) -->
  <g transform="translate(128, 178) scale(0.7) translate(-125, -125)">
    <path d="M180 120C180 103.431 166.569 90 150 90C145.351 90 140.984 91.0541 137.104 92.9382C131.146 82.0411 119.448 75 106 75C88.8792 75 75 88.8792 75 106C75 107.355 75.0864 108.689 75.2536 110C61.3145 111.411 50.5 123.196 50.5 137.5C50.5 152.688 62.8122 165 78 165H172.5C187.688 165 200 152.688 200 137.5C200 127.843 191.48 119.67 180 117.917V120Z" fill="#3B82F6"/>
  </g>
</svg>
